2014048_C5_02_grf
version=1
nRows=24
nColumns=19
inDegrees=no
endheader
time	ground_force_1_vx	ground_force_1_vy	ground_force_1_vz	ground_force_1_px	ground_force_1_py	ground_force_1_pz	ground_force_1_mx	ground_force_1_my	ground_force_1_mz	ground_force_2_vx	ground_force_2_vy	ground_force_2_vz	ground_force_2_px	ground_force_2_py	ground_force_2_pz	ground_force_2_mx	ground_force_2_my	ground_force_2_mz
      0.36000000	      0.00000000	      0.00000000	      0.00000000	      0.00000000	      0.00000000	      0.00000000	      0.00000000	      0.00000000	      0.00000000	    -14.11947329	    432.18854070	    -23.84776920	     -0.75961161	     -0.00200000	      0.29121680	      0.00000000	      2.14285010	      0.00000000
      0.36100000	      0.00000000	      0.00000000	      0.00000000	      0.00000000	      0.00000000	      0.00000000	      0.00000000	      0.00000000	      0.00000000	    -13.91605288	    433.74347687	    -23.99674803	     -0.75919760	     -0.00200000	      0.29126121	      0.00000000	      2.12974576	      0.00000000
      0.36200000	      0.00000000	      0.00000000	      0.00000000	      0.00000000	      0.00000000	      0.00000000	      0.00000000	      0.00000000	      0.00000000	    -13.70923221	    435.33962965	    -24.14607406	     -0.75879149	     -0.00200000	      0.29130319	      0.00000000	      2.11654346	      0.00000000
      0.36300000	      0.00000000	      0.00000000	      0.00000000	      0.00000000	      0.00000000	      0.00000000	      0.00000000	      0.00000000	      0.00000000	    -13.49786716	    436.98740005	    -24.29516837	     -0.75839535	     -0.00200000	      0.29134203	      0.00000000	      2.10329369	      0.00000000
      0.36400000	      0.00000000	      0.00000000	      0.00000000	      0.00000000	      0.00000000	      0.00000000	      0.00000000	      0.00000000	      0.00000000	    -13.28261942	    438.67653608	    -24.44354296	     -0.75800729	     -0.00200000	      0.29137830	      0.00000000	      2.09006716	      0.00000000
      0.36500000	      0.00000000	      0.00000000	      0.00000000	      0.00000000	      0.00000000	      0.00000000	      0.00000000	      0.00000000	      0.00000000	    -13.06220284	    440.41730464	    -24.59036857	     -0.75762940	     -0.00200000	      0.29141131	      0.00000000	      2.07694713	      0.00000000
      0.36600000	      0.00000000	      0.00000000	      0.00000000	      0.00000000	      0.00000000	      0.00000000	      0.00000000	      0.00000000	      0.00000000	    -12.83738855	    442.19940901	    -24.73543882	     -0.75725973	     -0.00200000	      0.29144165	      0.00000000	      2.06397523	      0.00000000
      0.36700000	      0.00000000	      0.00000000	      0.00000000	      0.00000000	      0.00000000	      0.00000000	      0.00000000	      0.00000000	      0.00000000	    -12.60674139	    444.03311610	    -24.87768233	     -0.75690041	     -0.00200000	      0.29146861	      0.00000000	      2.05126878	      0.00000000
      0.36800000	      0.00000000	      0.00000000	      0.00000000	      0.00000000	      0.00000000	      0.00000000	      0.00000000	      0.00000000	      0.00000000	    -12.37114891	    445.90806961	    -25.01716614	     -0.75654943	     -0.00200000	      0.29149282	      0.00000000	      2.03884013	      0.00000000
      0.36900000	      0.00000000	      0.00000000	      0.00000000	      0.00000000	      0.00000000	      0.00000000	      0.00000000	      0.00000000	      0.00000000	    -12.12901762	    447.83459604	    -25.15259534	     -0.75620893	     -0.00200000	      0.29151353	      0.00000000	      2.02683970	      0.00000000
      0.37000000	      0.00000000	      0.00000000	      0.00000000	      0.00000000	      0.00000000	      0.00000000	      0.00000000	      0.00000000	      0.00000000	    -11.88136637	    449.80230927	    -25.28432608	     -0.75587685	     -0.00200000	      0.29153135	      0.00000000	      2.01524459	      0.00000000
      0.37100000	      0.00000000	      0.00000000	      0.00000000	      0.00000000	      0.00000000	      0.00000000	      0.00000000	      0.00000000	      0.00000000	    -11.62645407	    451.82149112	    -25.41089505	     -0.75555533	     -0.00200000	      0.29154549	      0.00000000	      2.00423130	      0.00000000
      0.37200000	      0.00000000	      0.00000000	      0.00000000	      0.00000000	      0.00000000	      0.00000000	      0.00000000	      0.00000000	      0.00000000	    -11.36544812	    453.88168097	    -25.53293109	     -0.75524228	     -0.00200000	      0.29155662	      0.00000000	      1.99374205	      0.00000000
      0.37300000	      0.00000000	      0.00000000	      0.00000000	      0.00000000	      0.00000000	      0.00000000	      0.00000000	      0.00000000	      0.00000000	    -11.09647285	    455.99296689	    -25.64883679	     -0.75493981	     -0.00200000	      0.29156391	      0.00000000	      1.98397930	      0.00000000
      0.37400000	      0.00000000	      0.00000000	      0.00000000	      0.00000000	      0.00000000	      0.00000000	      0.00000000	      0.00000000	      0.00000000	    -10.82084794	    458.14487338	    -25.75949430	     -0.75464577	     -0.00200000	      0.29156810	      0.00000000	      1.97485375	      0.00000000
      0.37500000	      0.00000000	      0.00000000	      0.00000000	      0.00000000	      0.00000000	      0.00000000	      0.00000000	      0.00000000	      0.00000000	    -10.53658221	    460.34729481	    -25.86320043	     -0.75436225	     -0.00200000	      0.29156835	      0.00000000	      1.96659262	      0.00000000
      0.37600000	      0.00000000	      0.00000000	      0.00000000	      0.00000000	      0.00000000	      0.00000000	      0.00000000	      0.00000000	      0.00000000	    -10.24515089	    462.58983016	    -25.96106827	     -0.75408710	     -0.00200000	      0.29156543	      0.00000000	      1.95907482	      0.00000000
      0.37700000	      0.00000000	      0.00000000	      0.00000000	      0.00000000	      0.00000000	      0.00000000	      0.00000000	      0.00000000	      0.00000000	     -9.94445477	    464.88213539	    -26.05133206	     -0.75382236	     -0.00200000	      0.29155855	      0.00000000	      1.95254639	      0.00000000
      0.37800000	      0.00000000	      0.00000000	      0.00000000	      0.00000000	      0.00000000	      0.00000000	      0.00000000	      0.00000000	      0.00000000	     -9.63611342	    467.21395850	    -26.13529861	     -0.75356589	     -0.00200000	      0.29154851	      0.00000000	      1.94685491	      0.00000000
      0.37900000	      0.00000000	      0.00000000	      0.00000000	      0.00000000	      0.00000000	      0.00000000	      0.00000000	      0.00000000	      0.00000000	     -9.31793777	    469.59471703	    -26.21117681	     -0.75331967	     -0.00200000	      0.29153452	      0.00000000	      1.94226287	      0.00000000
      0.38000000	      0.00000000	      0.00000000	      0.00000000	      0.00000000	      0.00000000	      0.00000000	      0.00000000	      0.00000000	      0.00000000	     -8.99168383	    472.01427817	    -26.28044784	     -0.75308156	     -0.00200000	      0.29151738	      0.00000000	      1.93858960	      0.00000000
      0.38100000	      0.00000000	      0.00000000	      0.00000000	      0.00000000	      0.00000000	      0.00000000	      0.00000000	      0.00000000	      0.00000000	     -8.65508011	    474.48179126	    -26.34132504	     -0.75285347	     -0.00200000	      0.29149634	      0.00000000	      1.93610903	      0.00000000
      0.38200000	      0.00000000	      0.00000000	      0.00000000	      0.00000000	      0.00000000	      0.00000000	      0.00000000	      0.00000000	      0.00000000	     -8.31000227	    476.98727250	    -26.39542520	     -0.75263330	     -0.00200000	      0.29147221	      0.00000000	      1.93461455	      0.00000000
      0.38300000	      0.00000000	      0.00000000	      0.00000000	      0.00000000	      0.00000000	      0.00000000	      0.00000000	      0.00000000	      0.00000000	     -7.95410248	    479.53961790	    -26.44102573	     -0.75242287	     -0.00200000	      0.29144423	      0.00000000	      1.93438902	      0.00000000
